<svg width="84" height="84" viewBox="0 0 84 84" fill="none" xmlns="http://www.w3.org/2000/svg">
<g filter="url(#filter0_d)">
<rect x="4" width="76" height="76" rx="38" fill="white"/>
<g clip-path="url(#clip0)">
<path d="M40.625 28.375C39.9375 29.0625 40.2125 31.0563 40.625 31.8125C40.625 31.8125 39.9375 34.0813 39.9375 35.25L40.625 40.0625L42 42.125L43.375 40.0625L44.0625 35.25C44.0625 34.0813 43.375 31.8125 43.375 31.8125C43.7875 31.0563 44.0625 29.0625 43.375 28.375" stroke="url(#paint0_linear)" stroke-width="1.39833" stroke-miterlimit="10" stroke-linecap="round" stroke-linejoin="round"/>
<path d="M44.0629 25.625C45.9879 24.3188 45.7816 23.4937 46.0566 21.6375C46.1941 20.6062 46.1941 19.575 45.7129 18.6125C45.3004 17.7875 44.4754 17.1687 43.5816 16.8937C43.1004 16.7562 42.5504 16.6875 42.0004 16.6875C41.4504 16.6875 40.9004 16.7562 40.4191 16.9625C39.5254 17.2375 38.7004 17.8563 38.2879 18.6813C37.8066 19.575 37.8754 20.675 37.9441 21.7063C38.1504 23.5625 38.0129 24.3875 39.9379 25.6938" stroke="url(#paint1_linear)" stroke-width="1.39833" stroke-miterlimit="10" stroke-linecap="round" stroke-linejoin="round"/>
<path d="M48.1875 45.5625C49.3563 45.5625 50.25 44.6688 50.25 43.5L51.625 32.5C51.625 30.4375 49.7688 29.475 48.875 29.0625L45.4375 27.6875C45.4375 27.6875 44.0625 28.375 42 28.375C39.9375 28.375 38.5625 27.6875 38.5625 27.6875L35.125 29.0625C34.2313 29.475 32.375 30.4375 32.375 32.5L33.75 43.5C33.75 44.6688 34.6438 45.5625 35.8125 45.5625" stroke="url(#paint2_linear)" stroke-width="1.39833" stroke-miterlimit="10" stroke-linecap="round" stroke-linejoin="round"/>
<path d="M36.5 38.6875L38.5625 51.75" stroke="url(#paint3_linear)" stroke-width="1.39833" stroke-miterlimit="10" stroke-linecap="round" stroke-linejoin="round"/>
<path d="M47.5 38.6875L45.4375 51.75" stroke="url(#paint4_linear)" stroke-width="1.39833" stroke-miterlimit="10" stroke-linecap="round" stroke-linejoin="round"/>
<path d="M20.6875 40.0625C25.9812 40.0625 30.3125 44.3937 30.3125 49.6875C30.8625 49.0687 31.55 48.5875 32.375 48.2438" stroke="url(#paint5_linear)" stroke-width="1.39833" stroke-miterlimit="10" stroke-linecap="round" stroke-linejoin="round"/>
<path d="M63.3125 40.0625C58.0187 40.0625 53.6875 44.3937 53.6875 49.6875C53.1375 49.0687 52.45 48.5875 51.625 48.2438" stroke="url(#paint6_linear)" stroke-width="1.39833" stroke-miterlimit="10" stroke-linecap="round" stroke-linejoin="round"/>
<path d="M35.125 57.9375C35.125 56.0125 33.6125 54.5 31.6875 54.5C30.7938 54.5 29.9688 54.8438 29.35 55.4625C28.5938 52.9188 26.1875 51.0625 23.4375 51.0625C22.475 51.0625 21.5125 51.2688 20.6875 51.6813" stroke="url(#paint7_linear)" stroke-width="1.39833" stroke-miterlimit="10" stroke-linecap="round" stroke-linejoin="round"/>
<path d="M48.875 57.9375C48.875 56.0125 50.3875 54.5 52.3125 54.5C53.2062 54.5 54.0313 54.8438 54.65 55.4625C55.4063 52.9188 57.8125 51.0625 60.5625 51.0625C61.525 51.0625 62.4875 51.2688 63.3125 51.6813" stroke="url(#paint8_linear)" stroke-width="1.39833" stroke-miterlimit="10" stroke-linecap="round" stroke-linejoin="round"/>
<path d="M34.5063 59.3125C35.8126 56.4937 38.7001 54.5 42.0001 54.5C45.3001 54.5 48.1876 56.4937 49.4938 59.3125" stroke="url(#paint9_linear)" stroke-width="1.39833" stroke-miterlimit="10" stroke-linecap="round" stroke-linejoin="round"/>
</g>
</g>
<defs>
<filter id="filter0_d" x="0" y="0" width="84" height="84" filterUnits="userSpaceOnUse" color-interpolation-filters="sRGB">
<feFlood flood-opacity="0" result="BackgroundImageFix"/>
<feColorMatrix in="SourceAlpha" type="matrix" values="0 0 0 0 0 0 0 0 0 0 0 0 0 0 0 0 0 0 127 0" result="hardAlpha"/>
<feOffset dy="4"/>
<feGaussianBlur stdDeviation="2"/>
<feComposite in2="hardAlpha" operator="out"/>
<feColorMatrix type="matrix" values="0 0 0 0 0 0 0 0 0 0 0 0 0 0 0 0 0 0 0.25 0"/>
<feBlend mode="normal" in2="BackgroundImageFix" result="effect1_dropShadow"/>
<feBlend mode="normal" in="SourceGraphic" in2="effect1_dropShadow" result="shape"/>
</filter>
<linearGradient id="paint0_linear" x1="42" y1="28.375" x2="42" y2="42.125" gradientUnits="userSpaceOnUse">
<stop stop-color="#CA9147"/>
<stop offset="1" stop-color="#D1964A"/>
</linearGradient>
<linearGradient id="paint1_linear" x1="42.0156" y1="16.6875" x2="42.0156" y2="25.6938" gradientUnits="userSpaceOnUse">
<stop stop-color="#CA9147"/>
<stop offset="1" stop-color="#D1964A"/>
</linearGradient>
<linearGradient id="paint2_linear" x1="42" y1="27.6875" x2="42" y2="45.5625" gradientUnits="userSpaceOnUse">
<stop stop-color="#CA9147"/>
<stop offset="1" stop-color="#D1964A"/>
</linearGradient>
<linearGradient id="paint3_linear" x1="37.5313" y1="38.6875" x2="37.5313" y2="51.75" gradientUnits="userSpaceOnUse">
<stop stop-color="#CA9147"/>
<stop offset="1" stop-color="#D1964A"/>
</linearGradient>
<linearGradient id="paint4_linear" x1="46.4687" y1="38.6875" x2="46.4687" y2="51.75" gradientUnits="userSpaceOnUse">
<stop stop-color="#CA9147"/>
<stop offset="1" stop-color="#D1964A"/>
</linearGradient>
<linearGradient id="paint5_linear" x1="26.5312" y1="40.0625" x2="26.5312" y2="49.6875" gradientUnits="userSpaceOnUse">
<stop stop-color="#CA9147"/>
<stop offset="1" stop-color="#D1964A"/>
</linearGradient>
<linearGradient id="paint6_linear" x1="57.4687" y1="40.0625" x2="57.4687" y2="49.6875" gradientUnits="userSpaceOnUse">
<stop stop-color="#CA9147"/>
<stop offset="1" stop-color="#D1964A"/>
</linearGradient>
<linearGradient id="paint7_linear" x1="27.9062" y1="51.0625" x2="27.9062" y2="57.9375" gradientUnits="userSpaceOnUse">
<stop stop-color="#CA9147"/>
<stop offset="1" stop-color="#D1964A"/>
</linearGradient>
<linearGradient id="paint8_linear" x1="56.0937" y1="51.0625" x2="56.0937" y2="57.9375" gradientUnits="userSpaceOnUse">
<stop stop-color="#CA9147"/>
<stop offset="1" stop-color="#D1964A"/>
</linearGradient>
<linearGradient id="paint9_linear" x1="42.0001" y1="54.5" x2="42.0001" y2="59.3125" gradientUnits="userSpaceOnUse">
<stop stop-color="#CA9147"/>
<stop offset="1" stop-color="#D1964A"/>
</linearGradient>
<clipPath id="clip0">
<rect width="44" height="44" fill="white" transform="translate(20 16)"/>
</clipPath>
</defs>
</svg>
